<svg xmlns="http://www.w3.org/2000/svg" viewBox="0 0 520 520" width="520" height="520">
  <defs>
    <radialGradient id="shine" cx="35%" cy="30%" r="70%">
      <stop offset="0%" stop-color="#ffffff" stop-opacity=".22"/>
      <stop offset="55%" stop-color="#ffffff" stop-opacity="0"/>
    </radialGradient>
  </defs>

  <circle cx="260" cy="260" r="256" fill="#111114"/>

  <g stroke="#26262c" fill="none">
    <circle cx="260" cy="260" r="248"/>
    <circle cx="260" cy="260" r="238"/>
    <circle cx="260" cy="260" r="228"/>
    <circle cx="260" cy="260" r="218"/>
    <circle cx="260" cy="260" r="206"/>
    <circle cx="260" cy="260" r="194"/>
    <circle cx="260" cy="260" r="182"/>
    <circle cx="260" cy="260" r="170"/>
    <circle cx="260" cy="260" r="158"/>
    <circle cx="260" cy="260" r="146"/>
    <circle cx="260" cy="260" r="134"/>
    <circle cx="260" cy="260" r="122"/>
  </g>

  <circle cx="260" cy="260" r="256" fill="url(#shine)"/>

  <!-- paper label -->
  <circle cx="260" cy="260" r="104" fill="#e0574a"/>
  <circle cx="260" cy="260" r="104" fill="none" stroke="#b8402f" stroke-width="3"/>
  <text x="260" y="228" text-anchor="middle" font-family="Arial, Helvetica, sans-serif"
        font-size="30" font-weight="bold" fill="#fdf6ec">SIDE A</text>
  <text x="260" y="256" text-anchor="middle" font-family="Arial, Helvetica, sans-serif"
        font-size="17" fill="#fdf6ec">33 &#8531; RPM</text>
  <text x="260" y="308" text-anchor="middle" font-family="Arial, Helvetica, sans-serif"
        font-size="15" fill="#fbe2d4">WEEKLY HITS</text>

  <!-- spindle hole -->
  <circle cx="260" cy="260" r="11" fill="#2b2b30"/>
  <circle cx="260" cy="260" r="11" fill="none" stroke="#7c7c86" stroke-width="2"/>
</svg>
